# xmcd
#
# Track frame offsets:
#	150
#	21894
#	42697
#	61073
#	93722
#	116434
#	137213
#	161478
#	181344
#	205533
#	228520
#	257059
#	273185
#	324682
#
# Disc length: 4718 seconds
#
# Revision: 0
# Processed by: cddbd v1.5.1PL0 Copyright (c) Steve Scherf et al.
# Submitted via: dBpowerAMP V4.0
#
DISCID=c4126c0e
DTITLE=Eric Clapton - Back Home
DYEAR=1900
DGENRE=
TTITLE0=So Tired
TTITLE1=Say What You Will
TTITLE2=I'm going Left
TTITLE3=Love Don't Love Nobody
TTITLE4=Revolution
TTITLE5=Love Comes to Everyone
TTITLE6=Lost and Found
TTITLE7=Oiece of My Heart
TTITLE8=One Day
TTITLE9=One Track Mind
TTITLE10=Run Home to Me
TTITLE11=Back Home
TTITLE12=Layla with Roomful of Blues
TTITLE13=Running on Faith (Unplugged)
EXTD=
EXTT0=
EXTT1=
EXTT2=
EXTT3=
EXTT4=
EXTT5=
EXTT6=
EXTT7=
EXTT8=
EXTT9=
EXTT10=
EXTT11=
EXTT12=
EXTT13=
PLAYORDER=
